<?xml version="1.0" encoding="UTF-8" standalone="no"?><!DOCTYPE svg PUBLIC "-//W3C//DTD SVG 1.1//EN" "http://www.w3.org/Graphics/SVG/1.1/DTD/svg11.dtd"><svg width="100%" height="100%" viewBox="0 0 313 313" version="1.1" xmlns="http://www.w3.org/2000/svg" xmlns:xlink="http://www.w3.org/1999/xlink" xml:space="preserve" xmlns:serif="http://www.serif.com/" style="fill-rule:evenodd;clip-rule:evenodd;stroke-linejoin:round;stroke-miterlimit:2;"><path d="M0,78.125c0,-43.147 34.978,-78.125 78.125,-78.125l156.25,0c43.147,0 78.125,34.978 78.125,78.125l0,156.25c0,43.147 -34.978,78.125 -78.125,78.125l-156.25,0c-43.147,0 -78.125,-34.978 -78.125,-78.125l0,-156.25Z" style="fill:#94c748;fill-rule:nonzero;"/><path d="M232.325,153.165l-12.84,78.438c-0.837,4.745 -4.187,7.537 -8.932,7.537l-108.864,0c-4.745,0 -8.095,-2.792 -8.932,-7.537l-22.61,-139.848c-0.837,-4.745 1.675,-7.816 6.141,-7.816l159.666,0c4.466,0 6.978,3.07 6.141,7.816l-6.141,36.846c-0.838,5.303 -3.908,7.537 -8.933,7.537l-96.023,0c-1.396,0 -2.233,0.838 -1.954,2.512l7.537,46.337c0.279,1.117 1.117,1.954 2.233,1.954l34.613,0c1.117,0 1.954,-0.838 2.233,-1.954l5.303,-33.496c0.558,-4.187 3.35,-5.862 7.258,-5.862l37.684,0c5.582,0 7.257,2.792 6.42,7.537Z" style="fill:#101214;fill-rule:nonzero;"/></svg>