<?xml version="1.0" encoding="UTF-8" standalone="no"?>
<!DOCTYPE svg PUBLIC "-//W3C//DTD SVG 1.1//EN" "http://www.w3.org/Graphics/SVG/1.1/DTD/svg11.dtd">
<svg width="100%" height="100%" viewBox="0 0 155 125" version="1.1" xmlns="http://www.w3.org/2000/svg" xmlns:xlink="http://www.w3.org/1999/xlink" xml:space="preserve" xmlns:serif="http://www.serif.com/" style="fill-rule:evenodd;clip-rule:evenodd;stroke-miterlimit:10;">
    <g id="Admin_Expand" transform="matrix(1,0,0,1,20,0)">
        <rect id="rect3333" x="34" y="97" width="12" height="3" style="fill:rgb(46,46,46);"/>
        <rect id="rect3335" x="34.5" y="89.5" width="11" height="10" style="fill:none;stroke:rgb(46,46,46);stroke-width:1px;"/>
    </g>
    <g id="rect3338" transform="matrix(1,0,0,1,20,0)">
        <rect x="9" y="93" width="12" height="3" style="fill:rgb(46,46,46);"/>
    </g>
    <g id="Warning">
        <path id="Triangle_1_" d="M118,68.5L121.75,75.501L125.5,82.5L118,82.5L110.5,82.5L114.25,75.501L118,68.5Z" style="fill:rgb(254,244,162);fill-rule:nonzero;stroke:rgb(169,42,17);stroke-width:1px;stroke-linejoin:round;stroke-miterlimit:4;"/>
        <g id="Exclamation">
            <rect id="rect3343" x="117" y="73.5" width="2" height="4.5" style="fill-opacity:0.8;"/>
            <rect id="rect3345" x="117" y="79" width="2" height="2" style="fill-opacity:0.8;"/>
        </g>
    </g>
    <path id="path6005" d="M97,68.213L99.316,72.916L104.5,73.67L100.75,77.33L101.635,82.5L97,80.061L92.365,82.5L93.25,77.33L89.5,73.67L94.684,72.916L97,68.213Z" style="fill:url(#_Linear1);fill-rule:nonzero;stroke:url(#_Linear2);stroke-width:0.67px;stroke-miterlimit:4;"/>
    <path id="path5993" d="M76,68.213L78.316,72.916L83.5,73.67L79.75,77.33L80.635,82.5L76,80.061L71.365,82.5L72.25,77.33L68.5,73.67L73.683,72.916L76,68.213Z" style="fill:rgb(240,240,238);fill-rule:nonzero;stroke:rgb(144,146,141);stroke-width:0.67px;stroke-miterlimit:4;"/>
    <g id="Admin_Add">
        <path id="path3214_2_" d="M63,76.25C63,80.529 59.531,84 55.25,84C50.969,84 47.5,80.529 47.5,76.25C47.5,71.971 50.969,68.5 55.25,68.5C59.531,68.5 63,71.971 63,76.25Z" style="fill-opacity:0.14902;fill-rule:nonzero;"/>
        <path id="path3216_7_" d="M61.5,75.5C61.5,79.365 58.365,82.5 54.5,82.5C50.634,82.5 47.5,79.365 47.5,75.5C47.5,71.634 50.634,68.5 54.5,68.5C58.365,68.5 61.5,71.634 61.5,75.5Z" style="fill:url(#_Radial3);fill-rule:nonzero;stroke:rgb(72,140,6);stroke-width:1px;stroke-miterlimit:4;"/>
        <rect id="rect3369" x="53.5" y="71" width="2" height="9" style="fill:rgb(51,102,3);"/>
        <rect id="rect3371" x="50" y="74.5" width="9" height="2" style="fill:rgb(51,102,3);"/>
    </g>
    <g id="Option_Not_Set">
        <path id="path3214_1_" d="M41.5,76.409C41.5,80.552 38.143,83.909 34,83.909C29.857,83.909 26.5,80.552 26.5,76.409C26.5,72.265 29.857,68.909 34,68.909C38.143,68.909 41.5,72.268 41.5,76.409Z" style="fill-opacity:0.14902;fill-rule:nonzero;"/>
        <path id="path3216_1_" d="M40.5,75.5C40.5,79.365 37.365,82.5 33.5,82.5C29.634,82.5 26.5,79.365 26.5,75.5C26.5,71.634 29.634,68.5 33.5,68.5C37.365,68.5 40.5,71.634 40.5,75.5Z" style="fill:rgb(194,196,190);fill-rule:nonzero;stroke:rgb(175,179,172);stroke-width:1px;stroke-miterlimit:4;"/>
    </g>
    <g id="Ship_It">
        <path id="path3214" d="M20.949,76.159C20.949,80.439 17.48,83.909 13.199,83.909C8.918,83.909 5.449,80.439 5.449,76.159C5.449,71.879 8.918,68.409 13.199,68.409C17.48,68.409 20.949,71.879 20.949,76.159Z" style="fill-opacity:0.14902;fill-rule:nonzero;"/>
        <path id="path3216" d="M19.5,75.5C19.5,79.365 16.365,82.5 12.5,82.5C8.634,82.5 5.5,79.365 5.5,75.5C5.5,71.634 8.634,68.5 12.5,68.5C16.365,68.5 19.5,71.634 19.5,75.5Z" style="fill:url(#_Radial4);fill-rule:nonzero;stroke:rgb(72,140,6);stroke-width:1px;stroke-miterlimit:4;"/>
        <path id="path3220" d="M9.478,75.086C9.667,75.086 10.28,76.346 10.376,76.641C10.57,77.192 10.395,77.171 10.478,77.171C10.542,77.171 10.607,77.124 10.675,77.033C12.035,74.965 13.165,74.126 14.323,72.847C14.625,72.515 15.453,72.494 16.108,72.494C16.263,72.494 16.366,72.513 16.42,72.535C16.473,72.559 16.501,72.597 16.501,72.639C16.501,72.701 16.42,72.828 16.26,73.02C14.39,75.155 12.746,76.719 11.149,79.087C11.037,79.253 10.809,79.336 10.465,79.336C10.116,79.336 9.91,79.322 9.846,79.293C9.681,79.229 9.488,78.875 9.265,78.239C9.013,77.536 8.416,75.976 8.416,75.801C8.416,75.61 8.586,75.418 8.924,75.239C9.134,75.141 9.317,75.086 9.478,75.086" style="fill:rgb(51,102,3);fill-rule:nonzero;"/>
    </g>
    <g id="Expand_to_header_1_">
        <rect id="rect3386" x="126.5" y="49.5" width="13" height="13" style="fill:white;stroke:rgb(187,177,166);stroke-width:1px;"/>
        <rect id="rect3388" x="126.5" y="49.5" width="13" height="2" style="fill:rgb(228,217,203);stroke:rgb(149,142,133);stroke-width:1px;"/>
        <rect id="rect3390" x="132" y="53" width="2" height="8" style="fill:rgb(83,83,83);"/>
        <rect id="rect3392" x="129" y="56" width="8" height="2" style="fill:rgb(83,83,83);"/>
        <rect id="rect3394" x="128" y="53" width="3" height="1" style="fill:rgb(207,207,207);"/>
        <rect id="rect3396" x="128" y="60" width="3" height="1" style="fill:rgb(207,207,207);"/>
        <rect id="rect3398" x="135" y="60" width="3" height="1" style="fill:rgb(207,207,207);"/>
        <rect id="rect3400" x="135" y="53" width="3" height="1" style="fill:rgb(207,207,207);"/>
    </g>
    <g id="Expand__x2B_20_below_copy">
        <rect id="rect3403" x="93.5" y="49.5" width="27" height="13" style="fill:white;stroke:rgb(187,177,166);stroke-width:1px;"/>
        <rect id="rect3405" x="93.5" y="49.5" width="27" height="2" style="fill:rgb(228,217,203);stroke:rgb(149,142,133);stroke-width:1px;"/>
        <rect id="rect3407" x="99" y="53" width="2" height="8" style="fill:rgb(83,83,83);"/>
        <rect id="rect3409" x="96" y="56" width="8" height="2" style="fill:rgb(83,83,83);"/>
        <rect id="rect3411" x="95" y="53" width="3" height="1" style="fill:rgb(207,207,207);"/>
        <rect id="rect3413" x="95" y="60" width="3" height="1" style="fill:rgb(207,207,207);"/>
        <rect id="rect3415" x="102" y="60" width="3" height="1" style="fill:rgb(207,207,207);"/>
        <rect id="rect3417" x="102" y="53" width="3" height="1" style="fill:rgb(207,207,207);"/>
        <g id="g3419">
            <path id="path3421" d="M108.343,59.229L111.756,59.229L111.756,59.889L107.4,59.889L107.4,59.229C107.728,58.922 108.172,58.51 108.747,57.998C109.314,57.477 109.673,57.144 109.818,56.996C110.095,56.715 110.291,56.475 110.4,56.276C110.511,56.086 110.566,55.889 110.566,55.707C110.566,55.395 110.447,55.145 110.208,54.955C109.969,54.762 109.657,54.664 109.273,54.664C109.001,54.664 108.711,54.707 108.412,54.792C108.109,54.877 107.787,55.104 107.443,55.274L107.443,54.483C107.793,54.358 108.119,54.162 108.422,54.097C108.727,54.033 109.004,54 109.256,54C109.921,54 110.451,54.149 110.846,54.449C111.242,54.749 111.44,55.148 111.44,55.65C111.44,55.882 111.391,56.113 111.294,56.326C111.191,56.539 111.018,56.791 110.755,57.08C110.686,57.154 110.455,57.371 110.068,57.728C109.686,58.085 109.042,58.586 108.343,59.229Z" style="fill-rule:nonzero;"/>
            <path id="path3423" d="M115.5,54C116.311,54 116.93,54.256 117.357,54.77C117.785,55.282 118,56.025 118,57.002C118,57.977 117.785,58.719 117.357,59.231C116.93,59.744 116.311,60 115.5,60C114.689,60 114.07,59.744 113.643,59.23C113.216,58.713 113,57.974 113,57.001C113,56.023 113.215,55.279 113.643,54.769C114.07,54.256 114.689,54 115.5,54ZM115.5,54.619C113.359,54.619 113.359,59.381 115.5,59.381C117.646,59.381 117.646,54.619 115.5,54.619Z" style="fill-rule:nonzero;"/>
        </g>
    </g>
    <g id="Expand_all">
        <rect id="rect3426" x="74.5" y="49.5" width="13" height="13" style="fill:white;stroke:rgb(187,177,166);stroke-width:1px;"/>
        <rect id="rect3428" x="83" y="60" width="3" height="1" style="fill:rgb(207,207,207);"/>
        <rect id="rect3430" x="76" y="60" width="3" height="1" style="fill:rgb(207,207,207);"/>
        <rect id="rect3432" x="76" y="58" width="3" height="1" style="fill:rgb(207,207,207);"/>
        <rect id="rect3434" x="76" y="51" width="3" height="1" style="fill:rgb(207,207,207);"/>
        <rect id="rect3436" x="76" y="53" width="3" height="1" style="fill:rgb(207,207,207);"/>
        <rect id="rect3438" x="83" y="51" width="3" height="1" style="fill:rgb(207,207,207);"/>
        <rect id="rect3440" x="83" y="53" width="3" height="1" style="fill:rgb(207,207,207);"/>
        <rect id="rect3442" x="83" y="58" width="3" height="1" style="fill:rgb(207,207,207);"/>
        <rect id="rect3444" x="80" y="52" width="2" height="8" style="fill:rgb(83,83,83);"/>
        <rect id="rect3446" x="77" y="55" width="8" height="2" style="fill:rgb(83,83,83);"/>
    </g>
    <g id="Expand__x2B_20_above">
        <rect id="rect3449" x="41.5" y="49.5" width="27" height="13" style="fill:white;stroke:rgb(187,177,166);stroke-width:1px;"/>
        <rect id="rect3451" x="41.5" y="60.5" width="27" height="2" style="fill:rgb(228,217,203);stroke:rgb(149,142,133);stroke-width:1px;"/>
        <rect id="rect3453" x="47" y="51" width="2" height="8" style="fill:rgb(83,83,83);"/>
        <rect id="rect3455" x="44" y="54" width="8" height="2" style="fill:rgb(83,83,83);"/>
        <rect id="rect3457" x="43" y="51" width="3" height="1" style="fill:rgb(207,207,207);"/>
        <rect id="rect3459" x="43" y="58" width="3" height="1" style="fill:rgb(207,207,207);"/>
        <rect id="rect3461" x="50" y="58" width="3" height="1" style="fill:rgb(207,207,207);"/>
        <rect id="rect3463" x="50" y="51" width="3" height="1" style="fill:rgb(207,207,207);"/>
        <g id="g3465">
            <path id="path3467" d="M56.343,57.229L59.756,57.229L59.756,57.889L55.4,57.889L55.4,57.229C55.73,56.922 56.178,56.51 56.747,55.998C57.315,55.477 57.673,55.144 57.819,54.996C58.097,54.715 58.291,54.476 58.402,54.282C58.512,54.087 58.568,53.895 58.568,53.707C58.568,53.399 58.448,53.149 58.209,52.956C57.97,52.762 57.658,52.665 57.274,52.665C57.002,52.665 56.714,52.707 56.412,52.792C56.11,52.877 55.787,53.107 55.443,53.28L55.443,52.489C55.793,52.363 56.119,52.167 56.422,52.103C56.725,52.037 57.004,52.003 57.256,52.003C57.921,52.003 58.45,52.152 58.846,52.452C59.241,52.752 59.439,53.152 59.439,53.653C59.439,53.891 59.39,54.116 59.291,54.329C59.192,54.542 59.013,54.793 58.752,55.083C58.68,55.155 58.453,55.374 58.069,55.729C57.685,56.085 57.042,56.586 56.343,57.229Z" style="fill-rule:nonzero;"/>
            <path id="path3469" d="M63.5,52C64.311,52 64.93,52.256 65.358,52.769C65.786,53.282 66,54.026 66,55.002C66,55.977 65.786,56.719 65.358,57.231C64.93,57.744 64.311,58 63.5,58C62.689,58 62.07,57.744 61.642,57.23C61.214,56.719 61,55.977 61,55.002C61,54.026 61.214,53.282 61.642,52.769C62.07,52.256 62.689,52 63.5,52ZM63.5,52.62C61.36,52.62 61.36,57.381 63.5,57.381C65.646,57.381 65.646,52.62 63.5,52.62Z" style="fill-rule:nonzero;"/>
        </g>
    </g>
    <g id="Collapse_chunk">
        <rect id="rect3472" x="22.5" y="49.5" width="13" height="13" style="fill:white;stroke:rgb(149,142,133);stroke-width:1px;"/>
        <rect id="rect3474" x="22.5" y="54.5" width="13" height="3" style="fill:rgb(228,217,203);stroke:rgb(149,142,133);stroke-width:1px;"/>
        <rect id="rect3476" x="24" y="51" width="4" height="2" style="fill:rgb(227,227,227);"/>
        <rect id="rect3478" x="30" y="51" width="4" height="2" style="fill:rgb(227,227,227);"/>
        <rect id="rect3480" x="30" y="59" width="4" height="2" style="fill:rgb(227,227,227);"/>
        <rect id="rect3482" x="24" y="59" width="4" height="2" style="fill:rgb(227,227,227);"/>
    </g>
    <g id="Delete">
        <path id="polygon3485" d="M16.813,51.621L14.692,49.5L11.157,53.036L7.621,49.5L5.5,51.621L9.036,55.156L5.5,58.691L7.621,60.812L11.157,57.277L14.692,60.812L16.813,58.691L13.278,55.156L16.813,51.621Z" style="fill:rgb(240,39,39);fill-rule:nonzero;stroke:rgb(168,10,10);stroke-width:1px;"/>
        <g id="rect3487" transform="matrix(-0.7072,0.707,-0.707,-0.7072,54.3401,91.7421)">
            <rect x="5.673" y="56.623" width="5" height="1" style="fill:rgb(232,83,83);"/>
        </g>
        <g id="rect3489" transform="matrix(-0.7076,0.7066,-0.7066,-0.7076,48.2646,82.2567)">
            <rect x="6.113" y="50.615" width="2" height="1" style="fill:rgb(232,83,83);"/>
        </g>
        <g id="rect3491" transform="matrix(-0.7072,0.7071,-0.7071,-0.7072,59.2868,79.7868)">
            <rect x="10.62" y="51.671" width="5.001" height="1" style="fill:rgb(232,83,83);"/>
        </g>
    </g>
    <g id="Pencil">
        <path id="Shadow_1_" d="M143.5,40.692C143.5,41.352 139.247,41.886 134,41.886C128.755,41.886 124.5,41.352 124.5,40.692C124.5,40.033 128.755,39.5 134,39.5C139.248,39.5 143.5,40.033 143.5,40.692Z" style="fill:url(#_Radial5);fill-rule:nonzero;"/>
        <path id="Head_1_" d="M129.621,35.536L133.157,39.072L128.207,40.486L129.621,35.536Z" style="fill:rgb(184,181,0);fill-rule:nonzero;stroke:rgb(161,154,0);stroke-width:0.75px;stroke-linecap:square;stroke-linejoin:round;stroke-miterlimit:4;"/>
        <path id="Head_Shine_1_" d="M129.021,39.004L129.833,36.281L130.292,36.74L129.493,39.378L129.021,39.004Z" style="fill:rgb(238,238,236);fill-opacity:0.494118;fill-rule:nonzero;"/>
        <path id="Body_1_" d="M129.656,35.571L134.605,30.621L138.143,34.157L133.191,39.106L129.656,35.571Z" style="fill:url(#_Linear6);fill-rule:nonzero;stroke:rgb(161,154,0);stroke-width:0.75px;stroke-linecap:square;stroke-linejoin:bevel;stroke-miterlimit:4;"/>
        <path id="Body_Shine_1_" d="M130.188,35.58L134.605,31.141L135.543,31.807L130.938,36.34L130.188,35.58Z" style="fill:rgb(238,238,236);fill-opacity:0.494118;fill-rule:nonzero;"/>
        <path id="Tip_1_" d="M127.631,41.052L128.512,38.045L130.694,40.212L127.631,41.052Z" style="fill-rule:nonzero;"/>
        <path id="Eraser_3_" d="M135.062,30.621L136.734,28.938L139.781,32L138.143,33.719L135.062,30.621Z" style="fill:url(#_Linear7);fill-rule:nonzero;"/>
        <path id="Eraser_Shine_1_" d="M135.062,30.621L136.693,29L137.4,29.707L135.668,31.438L135.062,30.621Z" style="fill:rgb(238,238,236);fill-opacity:0.494118;fill-rule:nonzero;"/>
        <path id="Eraser_border_top" d="M135.668,29.561L136.729,28.5L140.264,32.035L139.203,33.096" style="fill:none;stroke:rgb(159,93,5);stroke-width:0.75px;stroke-linecap:square;stroke-linejoin:round;stroke-miterlimit:4;"/>
        <path id="Eraser_border_bottom" d="M139.203,33.096L138.143,34.157L136.34,32.354L134.605,30.621L135.668,29.561" style="fill:none;stroke:rgb(157,92,3);stroke-width:0.75px;stroke-linecap:square;stroke-miterlimit:4;"/>
    </g>
    <g transform="matrix(1,0,0,1,-2.76136,8.73864)">
        <circle cx="112.261" cy="27.261" r="3.261" style="fill:none;stroke:rgb(0,88,219);stroke-width:2px;stroke-linecap:round;stroke-linejoin:round;stroke-miterlimit:1.5;"/>
        <circle cx="112.261" cy="27.261" r="3.261" style="fill:rgb(23,116,255);"/>
    </g>
    <g id="Comment_flag">
        <g transform="matrix(1,0,0,1,41.9979,0.00942979)">
            <path d="M35.29,29.991C35.44,29.997 35.588,30.018 35.732,30.062C36.191,30.2 36.574,30.535 36.791,30.961C36.927,31.228 36.992,31.522 36.996,31.821L36.996,32.82L39.869,36.495L36.996,40.17C36.996,40.518 37.007,40.897 36.994,41.258C36.99,41.319 36.985,41.38 36.977,41.44C36.94,41.674 36.867,41.899 36.75,42.106C36.528,42.496 36.162,42.798 35.732,42.928C35.588,42.972 35.44,42.993 35.29,42.999C32.429,42.999 29.567,42.999 26.706,42.999C26.556,42.993 26.408,42.972 26.264,42.928C25.805,42.79 25.422,42.455 25.205,42.029C25.083,41.789 25.018,41.527 25.002,41.258C25.002,38.134 25.002,34.849 25.002,31.732C25.018,31.463 25.083,31.201 25.205,30.961C25.422,30.535 25.805,30.2 26.264,30.062C26.408,30.018 26.556,29.997 26.706,29.991C27.729,29.991 32.449,29.991 35.29,29.991Z" style="fill:rgb(46,52,54);fill-opacity:0.164706;fill-rule:nonzero;"/>
        </g>
        <path id="rect2372" d="M67.742,29.5L76.262,29.5C76.95,29.5 77.504,30.095 77.504,30.834L77.504,32L80.311,35.5L77.504,39L77.504,40.166C77.504,40.905 76.949,41.5 76.262,41.5L67.742,41.5C67.054,41.5 66.5,40.905 66.5,40.166L66.5,30.834C66.5,30.095 67.055,29.5 67.742,29.5Z" style="fill:rgb(161,192,227);fill-rule:nonzero;stroke:rgb(32,74,135);stroke-width:1px;stroke-linecap:square;stroke-miterlimit:4;"/>
    </g>
    <g id="Ship_It_comment_flag">
        <g transform="matrix(1,0,0,1,20.9979,0.00942979)">
            <path d="M35.29,29.991C35.44,29.997 35.588,30.018 35.732,30.062C36.191,30.2 36.574,30.535 36.791,30.961C36.927,31.228 36.992,31.522 36.996,31.821L36.996,32.82L39.869,36.495L36.996,40.17C36.996,40.518 37.007,40.897 36.994,41.258C36.99,41.319 36.985,41.38 36.977,41.44C36.94,41.674 36.867,41.899 36.75,42.106C36.528,42.496 36.162,42.798 35.732,42.928C35.588,42.972 35.44,42.993 35.29,42.999C32.429,42.999 29.567,42.999 26.706,42.999C26.556,42.993 26.408,42.972 26.264,42.928C25.805,42.79 25.422,42.455 25.205,42.029C25.083,41.789 25.018,41.527 25.002,41.258C25.002,38.134 25.002,34.849 25.002,31.732C25.018,31.463 25.083,31.201 25.205,30.961C25.422,30.535 25.805,30.2 26.264,30.062C26.408,30.018 26.556,29.997 26.706,29.991C27.729,29.991 32.449,29.991 35.29,29.991Z" style="fill:rgb(46,52,54);fill-opacity:0.164706;fill-rule:nonzero;"/>
        </g>
        <path id="rect2372_1_" d="M46.742,29.5L55.262,29.5C55.95,29.5 56.504,30.095 56.504,30.834L56.504,32L59.311,35.5L56.504,39L56.504,40.166C56.504,40.905 55.949,41.5 55.262,41.5L46.742,41.5C46.054,41.5 45.5,40.905 45.5,40.166L45.5,30.834C45.5,30.095 46.055,29.5 46.742,29.5Z" style="fill:rgb(161,192,227);fill-rule:nonzero;stroke:rgb(32,74,135);stroke-width:1px;stroke-linecap:square;stroke-miterlimit:4;"/>
        <g transform="matrix(1.23461,0,0,1.26317,-9.78795,-7.73337)">
            <path d="M49.689,39.774C49.209,39.81 47.491,39.379 47.541,36.799C47.566,35.524 49.124,34.688 50.599,34.617C50.033,34.185 49.91,32.304 49.956,31.923C50.046,31.182 51.396,30.598 51.871,31.299C52.219,31.813 52.422,33.773 53.367,34.827C53.724,35.225 54.818,35.44 54.83,35.998L54.824,39.774L49.689,39.774Z" style="fill:white;stroke:rgb(32,74,135);stroke-width:0.8px;stroke-linecap:round;stroke-linejoin:round;stroke-miterlimit:1.5;"/>
        </g>
    </g>
    <g id="svg2160">
        <path d="M35.29,29.991C35.44,29.997 35.588,30.018 35.732,30.062C36.191,30.2 36.574,30.535 36.791,30.961C36.927,31.228 36.992,31.522 36.996,31.821L36.996,32.82L39.869,36.495L36.996,40.17C36.996,40.518 37.007,40.897 36.994,41.258C36.99,41.319 36.985,41.38 36.977,41.44C36.94,41.674 36.867,41.899 36.75,42.106C36.528,42.496 36.162,42.798 35.732,42.928C35.588,42.972 35.44,42.993 35.29,42.999C32.429,42.999 29.567,42.999 26.706,42.999C26.556,42.993 26.408,42.972 26.264,42.928C25.805,42.79 25.422,42.455 25.205,42.029C25.083,41.789 25.018,41.527 25.002,41.258C25.002,38.134 25.002,34.849 25.002,31.732C25.018,31.463 25.083,31.201 25.205,30.961C25.422,30.535 25.805,30.2 26.264,30.062C26.408,30.018 26.556,29.997 26.706,29.991C27.729,29.991 32.449,29.991 35.29,29.991Z" style="fill:rgb(46,52,54);fill-opacity:0.164706;fill-rule:nonzero;"/>
        <path id="path10191" d="M25.742,29.5L34.262,29.5C34.95,29.5 35.504,30.095 35.504,30.834L35.504,32L38.311,35.5L35.504,39L35.504,40.166C35.504,40.905 34.949,41.5 34.262,41.5L25.742,41.5C25.054,41.5 24.5,40.905 24.5,40.166L24.5,30.834C24.5,30.095 25.055,29.5 25.742,29.5Z" style="fill:rgb(205,255,156);fill-rule:nonzero;stroke:rgb(77,156,0);stroke-width:1px;stroke-linecap:square;stroke-miterlimit:4;"/>
    </g>
    <g transform="matrix(1.23456,0,0,1.25111,28.8093,-10.2641)">
        <path d="M49.689,39.774C49.209,39.81 47.491,39.379 47.541,36.799C47.566,35.524 49.124,34.688 50.599,34.617C50.033,34.185 49.91,32.304 49.956,31.923C50.046,31.182 51.396,30.598 51.871,31.299C52.219,31.813 52.422,33.773 53.367,34.827C53.724,35.225 54.818,35.44 54.83,35.998L54.824,39.774L49.689,39.774Z" style="fill:white;stroke:rgb(62,119,5);stroke-width:0.81px;stroke-linecap:round;stroke-linejoin:round;stroke-miterlimit:1.5;"/>
    </g>
    <g id="Expand_button" transform="matrix(1,0,0,1,130,-23)">
        <path id="path3563" d="M18.5,40C18.5,41.025 18.025,41.5 17,41.5L7,41.5C5.975,41.5 5.5,41.025 5.5,40L5.5,30C5.5,28.975 5.975,28.5 7,28.5L17,28.5C18.025,28.5 18.5,28.975 18.5,30L18.5,40Z" style="fill:url(#_Linear8);fill-rule:nonzero;stroke:rgb(46,46,46);stroke-width:1px;stroke-miterlimit:4;"/>
        <path id="polygon3565" d="M16,34L13,34L13,31L11,31L11,34L8,34L8,36L11,36L11,39L13,39L13,36L16,36L16,34Z" style="fill:rgb(46,46,46);fill-rule:nonzero;"/>
    </g>
    <g id="Collapse_button">
        <path id="path3573" d="M127.5,17C127.5,18.025 127.025,18.5 126,18.5L116,18.5C114.975,18.5 114.5,18.025 114.5,17L114.5,7C114.5,5.975 114.975,5.5 116,5.5L126,5.5C127.025,5.5 127.5,5.975 127.5,7L127.5,17Z" style="fill:url(#_Linear9);fill-rule:nonzero;stroke:rgb(46,46,46);stroke-width:1px;stroke-miterlimit:4;"/>
        <rect id="rect3575" x="117" y="11" width="8" height="2" style="fill:rgb(46,46,46);"/>
    </g>
    <g id="Expand">
        <rect id="rect3578" x="99" y="10" width="2" height="10" style="fill-opacity:0.247059;"/>
        <rect id="rect3580" x="96" y="14" width="8" height="2" style="fill-opacity:0.247059;"/>
        <rect id="rect3582" x="95" y="13" width="10" height="2"/>
        <rect id="rect3584" x="99" y="9" width="2" height="10"/>
    </g>
    <g id="Collapse">
        <rect id="rect3587" x="73" y="14" width="8" height="2" style="fill-opacity:0.247059;"/>
        <rect id="rect3589" x="72" y="13" width="10" height="2"/>
    </g>
    <path id="polygon3597" d="M53.086,14.328L49.55,10.792L47.429,12.914L53.086,18.571L55.102,16.555L61.571,10.085L59.45,7.964L53.086,14.328Z" style="fill:rgb(129,201,118);fill-rule:nonzero;stroke:url(#_Linear10);stroke-width:1px;stroke-linejoin:round;stroke-miterlimit:4;"/>
    <g id="Open_Issue">
        <path id="path3216_3_" d="M41.5,13C41.5,17.142 38.142,20.5 34,20.5C29.858,20.5 26.5,17.142 26.5,13C26.5,8.858 29.858,5.5 34,5.5C38.142,5.5 41.5,8.858 41.5,13Z" style="fill:url(#_Radial11);fill-rule:nonzero;stroke:rgb(171,14,7);stroke-width:1px;stroke-miterlimit:4;"/>
        <path id="path3216_4_" d="M40.5,13C40.5,16.589 37.589,19.5 34,19.5C30.411,19.5 27.5,16.589 27.5,13C27.5,9.41 30.411,6.5 34,6.5C37.589,6.5 40.5,9.41 40.5,13Z" style="fill:none;stroke:rgb(234,81,81);stroke-width:1px;stroke-miterlimit:4;"/>
    </g>
    <g id="Open_Issue1" transform="matrix(1,0,0,1,70,102)">
        <g id="path3216_3_1" transform="matrix(1,0,0,1,21,-4.26326e-14)">
            <path d="M41.5,13C41.5,17.142 38.142,20.5 34,20.5C29.858,20.5 26.5,17.142 26.5,13C26.5,8.858 29.858,5.5 34,5.5C38.142,5.5 41.5,8.858 41.5,13Z" style="fill:rgb(255,183,74);fill-rule:nonzero;stroke:rgb(170,102,0);stroke-width:1px;stroke-miterlimit:4;"/>
        </g>
        <g id="path3216_4_1" transform="matrix(1,0,0,1,21,0)">
            <path d="M40.5,13C40.5,16.589 37.589,19.5 34,19.5C30.411,19.5 27.5,16.589 27.5,13C27.5,9.41 30.411,6.5 34,6.5C37.589,6.5 40.5,9.41 40.5,13Z" style="fill:none;stroke:white;stroke-opacity:0.301961;stroke-width:1px;stroke-miterlimit:4;"/>
        </g>
        <g transform="matrix(-1.09091,-2.45179e-32,-2.40879e-32,-1.09091,168.683,138.455)">
            <path d="M105.126,111.326L105.126,109.5L108.793,112.25L105.126,115L105.126,113.167C104.281,113.176 100.543,113.159 100.543,113.159L100.543,111.333C100.543,111.333 104.281,111.316 105.126,111.326Z" style="fill:rgb(78,66,0);"/>
        </g>
        <g transform="matrix(1.09091,-2.45179e-32,2.40879e-32,-1.09091,-58.683,132.455)">
            <path d="M105.126,111.326L105.126,109.5L108.793,112.25L105.126,115L105.126,113.167C104.281,113.176 100.543,113.159 100.543,113.159L100.543,111.333C100.543,111.333 104.281,111.316 105.126,111.326Z" style="fill:rgb(78,66,0);"/>
        </g>
    </g>
    <g>
        <g transform="matrix(-1.09091,-2.45179e-32,-2.40879e-32,-1.09091,258.683,240.455)">
            <path d="M105.126,111.326L105.126,109.5L108.793,112.25L105.126,115L105.126,113.167C104.281,113.176 101.459,113.159 101.459,113.159L101.459,111.333C101.459,111.333 104.281,111.316 105.126,111.326Z" style="fill:rgb(128,111,0);"/>
        </g>
        <g transform="matrix(1.09091,-2.45179e-32,2.40879e-32,-1.09091,30.317,234.455)">
            <path d="M105.126,111.326L105.126,109.5L108.793,112.25L105.126,115L105.126,113.167C104.281,113.176 101.459,113.159 101.459,113.159L101.459,111.333C101.459,111.333 104.281,111.316 105.126,111.326Z" style="fill:rgb(128,111,0);"/>
        </g>
    </g>
    <g id="Ship-It.2f.Open-Issue-Header" transform="matrix(1,0,0,1,2.5,0.5)">
        <g transform="matrix(-1.25,-3.85186e-33,3.85186e-33,-1.25,169,255.75)">
            <path d="M68.4,107C69.884,107 78.092,107 78.092,107L75.3,119C75.3,119 70.036,119 68.4,119C65.089,119 62.4,116.311 62.4,113C62.4,109.689 65.089,107 68.4,107Z" style="fill:url(#_Linear12);stroke:rgb(176,151,0);stroke-width:0.8px;stroke-linecap:round;stroke-linejoin:round;stroke-miterlimit:1.5;"/>
        </g>
        <g transform="matrix(1.25,3.85186e-33,-3.85186e-33,1.25,-24.25,-26.75)">
            <path d="M71,107C72.484,107 80.492,107 80.492,107L77.7,119C77.7,119 72.54,119 71,119C67.689,119 65,116.311 65,113C65,109.689 67.689,107 71,107Z" style="fill:url(#_Linear13);"/>
            <g transform="matrix(0.965744,-2.97593e-33,3.0844e-33,1.00094,22.8483,77.5867)">
                <clipPath id="_clip14">
                    <path d="M49.86,29.386C51.396,29.386 59.688,29.386 59.688,29.386L56.797,41.374C56.797,41.374 51.454,41.374 49.86,41.374C46.431,41.374 43.647,38.688 43.647,35.38C43.647,32.072 46.431,29.386 49.86,29.386Z"/>
                </clipPath>
                <g clip-path="url(#_clip14)">
                    <path d="M49.689,39.774C49.209,39.81 47.491,39.379 47.541,36.799C47.566,35.524 49.124,34.688 50.599,34.617C50.033,34.185 49.91,32.304 49.956,31.923C50.046,31.182 51.396,30.598 51.871,31.299C52.219,31.813 52.422,33.773 53.367,34.827C53.724,35.225 54.818,35.44 54.83,35.998L54.824,39.774L49.689,39.774Z" style="fill:white;stroke:rgb(62,119,5);stroke-width:0.81px;stroke-linecap:round;stroke-linejoin:round;stroke-miterlimit:1.5;"/>
                </g>
            </g>
            <path d="M71,107C72.484,107 80.492,107 80.492,107L77.7,119C77.7,119 72.54,119 71,119C67.689,119 65,116.311 65,113C65,109.689 67.689,107 71,107Z" style="fill:none;stroke:rgb(72,140,6);stroke-width:0.8px;stroke-linecap:round;stroke-linejoin:round;stroke-miterlimit:1.5;"/>
        </g>
        <g id="Dashboard-.--Open-Issue" transform="matrix(0.533333,-1.38778e-17,1.38778e-17,0.533333,64.8664,108.067)">
            <g transform="matrix(4.25269,-1.2326e-32,0,2.83513,-189.424,-315.013)">
                <circle cx="52.096" cy="117.68" r="0.661" style="fill:rgb(125,108,0);"/>
            </g>
            <g transform="matrix(4.25269,1.31046e-32,-6.2696e-33,2.0346,-189.424,-220.181)">
                <path d="M52.096,110C52.461,110 52.757,110.239 52.757,111.765C52.757,113.291 52.461,115.529 52.096,115.529C51.731,115.529 51.435,113.291 51.435,111.765C51.435,110.239 51.731,110 52.096,110Z" style="fill:rgb(125,108,0);"/>
            </g>
        </g>
    </g>
    <g id="Dashboard-.--Open-Issue1" transform="matrix(0.533333,0,0,0.533333,33.8667,107.067)">
        <g transform="matrix(4.25269,0,0,2.83513,-189.424,-315.013)">
            <circle cx="52.096" cy="117.68" r="0.661" style="fill:rgb(125,108,0);"/>
        </g>
        <g transform="matrix(4.25269,0,0,2.0346,-189.424,-220.181)">
            <path d="M52.096,110C52.461,110 52.757,110.239 52.757,111.765C52.757,113.291 52.461,115.529 52.096,115.529C51.731,115.529 51.435,113.291 51.435,111.765C51.435,110.239 51.731,110 52.096,110Z" style="fill:rgb(125,108,0);"/>
        </g>
    </g>
    <g id="Discarded_Issue">
        <path id="path3216_6_" d="M20.5,13C20.5,17.142 17.142,20.5 13,20.5C8.858,20.5 5.5,17.142 5.5,13C5.5,8.858 8.858,5.5 13,5.5C17.142,5.5 20.5,8.858 20.5,13Z" style="fill:url(#_Radial15);fill-rule:nonzero;stroke:rgb(58,64,66);stroke-width:1px;stroke-miterlimit:4;"/>
        <path id="path3216_5_" d="M19.5,13C19.5,16.589 16.589,19.5 13,19.5C9.411,19.5 6.5,16.589 6.5,13C6.5,9.41 9.411,6.5 13,6.5C16.589,6.5 19.5,9.41 19.5,13Z" style="fill:none;stroke:rgb(161,164,160);stroke-width:1px;stroke-miterlimit:4;"/>
        <path id="polygon3615" d="M17.243,10.171L15.829,8.757L13,11.586L10.171,8.757L8.757,10.171L11.586,13L8.757,15.829L10.171,17.243L13,14.414L15.829,17.243L17.243,15.829L14.414,13L17.243,10.171Z" style="fill:rgb(245,245,243);fill-rule:nonzero;"/>
    </g>
    <g id="arrow.2e..-box.2e..-out.2e..-right.2e..-mini" transform="matrix(1,0,0,1,20,0)">
        <path id="path3618" d="M68,95C61,95 59,101 59,101C59,90 68,90 68,90L68,87L76,93L68,99L68,95Z" style="fill:rgb(46,46,46);fill-rule:nonzero;"/>
        <path id="polygon3620" d="M62,90L57,90L57,103L73,103L73,98L74,98L74,104L56,104L56,89L62,89L62,90Z" style="fill:rgb(46,46,46);fill-rule:nonzero;"/>
    </g>
    <g id="search.2e..-mini" transform="matrix(1,0,0,1,-0.502,0.504)">
        <path id="path3623" d="M146.223,83.25C145.952,83.25 145.692,83.145 145.498,82.949L140.662,78.111C139.71,78.771 138.596,79.119 137.427,79.119C135.911,79.119 134.489,78.529 133.416,77.458C132.342,76.385 131.75,74.956 131.75,73.437C131.75,71.916 132.342,70.491 133.416,69.416C134.49,68.342 135.918,67.75 137.437,67.75C138.956,67.75 140.381,68.342 141.458,69.416C143.393,71.35 143.656,74.426 142.113,76.661L146.949,81.498C147.349,81.896 147.349,82.548 146.949,82.949C146.755,83.144 146.496,83.25 146.223,83.25ZM137.438,69.807C136.466,69.807 135.555,70.184 134.872,70.869C134.189,71.554 133.81,72.467 133.81,73.435C133.81,74.408 134.189,75.321 134.872,76.003C135.555,76.689 136.469,77.065 137.438,77.065C138.411,77.065 139.323,76.688 140.006,76.003C140.692,75.315 141.068,74.405 141.068,73.435C141.068,72.463 140.689,71.552 140.006,70.869C139.322,70.184 138.409,69.807 137.438,69.807Z" style="fill:white;fill-rule:nonzero;"/>
        <path id="path3625" d="M137.438,68C138.833,68 140.221,68.531 141.285,69.594C143.222,71.532 143.385,74.561 141.79,76.688L146.774,81.676C147.08,81.979 147.08,82.469 146.774,82.774C146.624,82.924 146.422,83.003 146.223,83.003C146.026,83.003 145.827,82.928 145.675,82.774L140.69,77.789C139.725,78.513 138.58,78.873 137.427,78.873C136.039,78.873 134.653,78.347 133.593,77.285C131.469,75.162 131.471,71.722 133.593,69.597C134.654,68.531 136.046,68 137.438,68M137.438,77.318C138.432,77.318 139.426,76.939 140.184,76.181C141.701,74.664 141.698,72.202 140.184,70.691C139.426,69.933 138.432,69.556 137.438,69.556C136.444,69.556 135.453,69.933 134.692,70.691C133.178,72.204 133.178,74.669 134.692,76.181C135.447,76.939 136.441,77.318 137.438,77.318M137.438,67.5C135.852,67.5 134.362,68.118 133.241,69.239C132.122,70.359 131.504,71.851 131.504,73.435C131.504,75.021 132.121,76.513 133.241,77.631C134.358,78.75 135.846,79.365 137.429,79.365C138.578,79.365 139.677,79.044 140.632,78.427L145.322,83.119C145.562,83.36 145.884,83.493 146.222,83.493C146.562,83.493 146.882,83.36 147.123,83.12C147.622,82.62 147.621,81.809 147.123,81.313L142.435,76.622C143.914,74.306 143.603,71.2 141.633,69.231C140.514,68.118 139.023,67.5 137.438,67.5ZM137.438,76.818C136.535,76.818 135.684,76.464 135.045,75.829C134.406,75.191 134.057,74.342 134.057,73.435C134.057,72.528 134.411,71.681 135.045,71.041C135.682,70.403 136.531,70.056 137.438,70.056C138.342,70.056 139.192,70.407 139.833,71.041C140.471,71.681 140.819,72.526 140.819,73.435C140.819,74.341 140.467,75.191 139.833,75.829C139.199,76.467 138.342,76.818 137.438,76.818Z" style="fill:rgb(155,155,155);fill-rule:nonzero;"/>
    </g>
    <path id="polygon3627" d="M100.5,103.5L108.5,103.5L108.5,92.5L104.57,88.5L100.5,92.5L100.5,103.5Z" style="fill:rgb(222,222,222);fill-rule:nonzero;stroke:rgb(71,71,71);stroke-width:1px;"/>
    <rect id="rect3629" x="103" y="93" width="1" height="9" style="fill:rgb(156,156,156);"/>
    <rect id="rect3631" x="105" y="93" width="1" height="9" style="fill:rgb(156,156,156);"/>
    <path id="Download" d="M121,90C117.134,90 114,93.134 114,97C114,100.866 117.134,104 121,104C124.866,104 128,100.866 128,97C128,93.134 124.866,90 121,90ZM119,93L123,93L123,97L126,97L121,102L116,97L119,97L119,93Z" style="fill:rgb(164,164,164);fill-rule:nonzero;"/>
    <g id="g3420" transform="matrix(1,0,0,1,-126,20)">
        <path id="path3422" d="M146.223,83.25C145.951,83.25 145.692,83.145 145.498,82.949L140.662,78.111C139.71,78.771 138.596,79.119 137.427,79.119C135.911,79.119 134.489,78.529 133.416,77.458C132.342,76.384 131.75,74.956 131.75,73.437C131.75,71.916 132.342,70.491 133.416,69.416C134.49,68.341 135.918,67.75 137.437,67.75C138.956,67.75 140.383,68.342 141.458,69.416C143.393,71.35 143.657,74.426 142.113,76.661L146.949,81.498C147.349,81.896 147.349,82.548 146.949,82.949C146.755,83.145 146.496,83.25 146.223,83.25ZM137.438,69.807C136.466,69.807 135.555,70.184 134.87,70.869C134.185,71.554 133.808,72.466 133.808,73.435C133.808,74.408 134.187,75.32 134.87,76.003C135.553,76.686 136.467,77.065 137.438,77.065C138.409,77.065 139.323,76.688 140.006,76.003C140.692,75.315 141.068,74.405 141.068,73.435C141.068,72.463 140.689,71.55 140.006,70.869C139.322,70.184 138.409,69.807 137.438,69.807Z" style="fill:white;fill-rule:nonzero;"/>
        <path id="path3424" d="M136.938,68C135.352,68 133.872,68.629 132.75,69.75C131.629,70.87 131,72.354 131,73.938C131,75.524 131.628,77.005 132.75,78.126C133.867,79.245 135.354,79.876 136.938,79.876C138.087,79.876 139.17,79.555 140.126,78.938L144.814,83.626C145.054,83.867 145.381,84.001 145.72,84.001C146.059,84.001 146.385,83.866 146.626,83.626C147.125,83.126 147.124,82.311 146.626,81.814L141.938,77.126C143.418,74.811 143.094,71.688 141.126,69.721C140.004,68.604 138.522,68 136.938,68ZM136.938,70.062C137.932,70.062 138.93,70.429 139.688,71.187C141.202,72.698 141.203,75.17 139.688,76.687C138.93,77.445 137.932,77.812 136.938,77.812C135.941,77.812 134.943,77.445 134.188,76.687C132.674,75.174 132.674,72.701 134.188,71.187C134.946,70.43 135.943,70.062 136.938,70.062Z" style="fill:rgb(120,120,120);fill-rule:nonzero;"/>
    </g>
    <g>
        <g transform="matrix(0.7071,0.7071,-0.7071,0.7071,107.068,-69.4812)">
            <rect x="136.905" y="88.503" width="1" height="11.999" style="fill:rgb(46,46,46);stroke:rgb(46,46,46);stroke-width:1px;"/>
        </g>
        <g transform="matrix(0.7071,-0.7071,0.7071,0.7071,-26.5755,124.839)">
            <rect x="136.906" y="88.5" width="1" height="11.999" style="fill:rgb(46,46,46);stroke:rgb(46,46,46);stroke-width:1px;"/>
        </g>
    </g>
    <g>
        <g>
            <path d="M6.35,117.112L6.35,112.132L9.659,108.35L17.855,108.35L21.65,112.145L21.65,117.112L6.35,117.112Z" style="fill:rgb(240,240,238);fill-rule:nonzero;"/>
            <path d="M17.71,108.7L21.3,112.29L21.3,116.762L6.7,116.762L6.7,112.263L9.818,108.701L17.71,108.701M18,108L9.5,108L6,112L6,117.462L22,117.462L22,112L18,108Z" style="fill:rgb(144,146,141);fill-rule:nonzero;"/>
        </g>
        <g>
            <path d="M6.35,119.65L6.35,112.349L10.992,112.349C11.148,113.93 12.367,114.967 14.123,114.967C15.88,114.967 17.099,113.93 17.255,112.349L21.65,112.349L21.65,119.65L6.35,119.65Z" style="fill:rgb(240,240,238);fill-rule:nonzero;"/>
            <path d="M21.3,112.7L21.3,119.3L6.7,119.3L6.7,112.7L10.69,112.7C10.992,114.272 12.319,115.318 14.123,115.318C15.927,115.318 17.254,114.272 17.557,112.7L21.3,112.7M22,112C22,112 17.742,112 16.922,112C16.922,113.652 15.723,114.618 14.123,114.618C12.584,114.618 11.325,113.709 11.325,112C10.48,112 6,112 6,112L6,120L22,120L22,112Z" style="fill:rgb(144,146,141);fill-rule:nonzero;"/>
        </g>
    </g>
    <g>
        <g>
            <path d="M29.5,108L38,108L42,112L42,117.462L26,117.462L26,112L29.5,108Z" style="fill:url(#_Linear16);fill-rule:nonzero;"/>
            <path d="M37.71,108.7L41.3,112.29L41.3,116.762L26.7,116.762L26.7,112.263L29.818,108.701L37.71,108.701M38,108L29.5,108L26,112L26,117.462L42,117.462L42,112L38,108Z" style="fill:url(#_Linear17);fill-rule:nonzero;"/>
        </g>
        <g>
            <path d="M26,112C26,112 30.48,112 31.325,112C31.325,113.709 32.585,114.618 34.123,114.618C35.723,114.618 36.922,113.652 36.922,112C37.742,112 42,112 42,112L42,120L26,120L26,112Z" style="fill:url(#_Linear18);fill-rule:nonzero;"/>
            <path d="M41.3,112.7L41.3,119.3L26.7,119.3L26.7,112.7L30.69,112.7C30.992,114.272 32.319,115.318 34.123,115.318C35.927,115.318 37.254,114.272 37.557,112.7L41.3,112.7M42,112C42,112 37.742,112 36.922,112C36.922,113.652 35.723,114.618 34.123,114.618C32.584,114.618 31.325,113.709 31.325,112C30.48,112 26,112 26,112L26,120L42,120L42,112Z" style="fill:url(#_Linear19);fill-rule:nonzero;"/>
        </g>
    </g>
    <g transform="matrix(1.57125,0,0,1.59232,24.5027,58.1638)">
        <path d="M49.689,39.774C49.209,39.81 47.491,39.379 47.541,36.799C47.566,35.524 49.124,34.688 50.599,34.617C50.033,34.185 49.91,32.304 49.956,31.923C50.046,31.182 51.396,30.598 51.871,31.299C52.219,31.813 52.422,33.773 53.367,34.827C53.724,35.225 54.818,35.44 54.83,35.998L54.824,39.774L49.689,39.774Z" style="fill:white;stroke:rgb(62,119,5);stroke-width:0.63px;stroke-linecap:round;stroke-linejoin:round;stroke-miterlimit:1.5;"/>
    </g>
    <g id="Down-Arrow" transform="matrix(0.698413,3.11831e-17,-2.14572e-17,-0.766551,-2.27778,138.652)">
        <path d="M19.727,130L25.455,136.523L14,136.523L19.727,130Z" style="fill-opacity:0.792157;"/>
    </g>
    <defs>
        <linearGradient id="_Linear1" x1="0" y1="0" x2="1" y2="0" gradientUnits="userSpaceOnUse" gradientTransform="matrix(1.00016,3.99989,-3.99989,1.00016,97.0179,73.7467)"><stop offset="0" style="stop-color:rgb(254,247,188);stop-opacity:1"/><stop offset="1" style="stop-color:rgb(252,233,79);stop-opacity:1"/></linearGradient>
        <linearGradient id="_Linear2" x1="0" y1="0" x2="1" y2="0" gradientUnits="userSpaceOnUse" gradientTransform="matrix(2.24988,6.49977,-6.49977,2.24988,96.1022,71.0376)"><stop offset="0" style="stop-color:rgb(196,160,0);stop-opacity:1"/><stop offset="1" style="stop-color:rgb(153,124,0);stop-opacity:1"/></linearGradient>
        <radialGradient id="_Radial3" cx="0" cy="0" r="1" gradientUnits="userSpaceOnUse" gradientTransform="matrix(8.4329,0,0,-8.4329,53.292,74.29)"><stop offset="0" style="stop-color:rgb(128,237,21);stop-opacity:1"/><stop offset="1" style="stop-color:rgb(98,185,13);stop-opacity:1"/></radialGradient>
        <radialGradient id="_Radial4" cx="0" cy="0" r="1" gradientUnits="userSpaceOnUse" gradientTransform="matrix(8.4329,0,0,-8.4329,11.292,74.29)"><stop offset="0" style="stop-color:rgb(128,237,21);stop-opacity:1"/><stop offset="1" style="stop-color:rgb(98,185,13);stop-opacity:1"/></radialGradient>
        <radialGradient id="_Radial5" cx="0" cy="0" r="1" gradientUnits="userSpaceOnUse" gradientTransform="matrix(9.49526,0,0,1.19326,134,40.6928)"><stop offset="0" style="stop-color:black;stop-opacity:0.447059"/><stop offset="1" style="stop-color:black;stop-opacity:0"/></radialGradient>
        <linearGradient id="_Linear6" x1="0" y1="0" x2="1" y2="0" gradientUnits="userSpaceOnUse" gradientTransform="matrix(3.66162,3.69184,-3.69184,3.66162,131.957,32.9064)"><stop offset="0" style="stop-color:rgb(255,254,129);stop-opacity:1"/><stop offset="1" style="stop-color:rgb(205,202,0);stop-opacity:1"/></linearGradient>
        <linearGradient id="_Linear7" x1="0" y1="0" x2="1" y2="0" gradientUnits="userSpaceOnUse" gradientTransform="matrix(2.95822,2.95822,-2.95822,2.95822,136.04,29.9284)"><stop offset="0" style="stop-color:rgb(242,143,0);stop-opacity:1"/><stop offset="1" style="stop-color:rgb(168,98,0);stop-opacity:1"/></linearGradient>
        <linearGradient id="_Linear8" x1="0" y1="0" x2="1" y2="0" gradientUnits="userSpaceOnUse" gradientTransform="matrix(2.08386e-16,3.4032,-3.4032,2.08386e-16,12,37.875)"><stop offset="0" style="stop-color:rgb(237,245,254);stop-opacity:1"/><stop offset="0.66" style="stop-color:rgb(185,191,198);stop-opacity:1"/><stop offset="1" style="stop-color:rgb(185,191,198);stop-opacity:1"/></linearGradient>
        <linearGradient id="_Linear9" x1="0" y1="0" x2="1" y2="0" gradientUnits="userSpaceOnUse" gradientTransform="matrix(2.08386e-16,3.4032,-3.4032,2.08386e-16,120.999,14.875)"><stop offset="0" style="stop-color:rgb(237,245,254);stop-opacity:1"/><stop offset="0.66" style="stop-color:rgb(185,191,198);stop-opacity:1"/><stop offset="1" style="stop-color:rgb(185,191,198);stop-opacity:1"/></linearGradient>
        <linearGradient id="_Linear10" x1="0" y1="0" x2="1" y2="0" gradientUnits="userSpaceOnUse" gradientTransform="matrix(-4.7524,-8.2314,8.2314,-4.7524,57.458,16.6235)"><stop offset="0" style="stop-color:rgb(53,120,47);stop-opacity:1"/><stop offset="0.16" style="stop-color:rgb(53,120,47);stop-opacity:1"/><stop offset="1" style="stop-color:rgb(121,192,109);stop-opacity:1"/></linearGradient>
        <radialGradient id="_Radial11" cx="0" cy="0" r="1" gradientUnits="userSpaceOnUse" gradientTransform="matrix(9.8412,0,0,-9.8412,33.375,11.5693)"><stop offset="0" style="stop-color:rgb(242,75,75);stop-opacity:1"/><stop offset="1" style="stop-color:rgb(240,51,51);stop-opacity:1"/></radialGradient>
        <linearGradient id="_Linear12" x1="0" y1="0" x2="1" y2="0" gradientUnits="userSpaceOnUse" gradientTransform="matrix(7.34788e-16,12,-12,7.34788e-16,69.6,107)"><stop offset="0" style="stop-color:rgb(255,223,23);stop-opacity:1"/><stop offset="1" style="stop-color:white;stop-opacity:1"/></linearGradient>
        <linearGradient id="_Linear13" x1="0" y1="0" x2="1" y2="0" gradientUnits="userSpaceOnUse" gradientTransform="matrix(7.34788e-16,12,-12,7.34788e-16,73,107)"><stop offset="0" style="stop-color:rgb(127,235,20);stop-opacity:1"/><stop offset="1" style="stop-color:rgb(123,200,16);stop-opacity:1"/></linearGradient>
        <radialGradient id="_Radial15" cx="0" cy="0" r="1" gradientUnits="userSpaceOnUse" gradientTransform="matrix(9.8412,0,0,-9.8412,12.375,11.5693)"><stop offset="0" style="stop-color:rgb(155,156,152);stop-opacity:1"/><stop offset="1" style="stop-color:rgb(139,141,136);stop-opacity:1"/></radialGradient>
        <linearGradient id="_Linear16" x1="0" y1="0" x2="1" y2="0" gradientUnits="userSpaceOnUse" gradientTransform="matrix(5.79374e-16,9.4619,-9.4619,5.79374e-16,34,108)"><stop offset="0" style="stop-color:rgb(254,247,188);stop-opacity:1"/><stop offset="1" style="stop-color:rgb(199,176,0);stop-opacity:1"/></linearGradient>
        <linearGradient id="_Linear17" x1="0" y1="0" x2="1" y2="0" gradientUnits="userSpaceOnUse" gradientTransform="matrix(4.2623,12.3135,-12.3135,4.2623,31.437,107.329)"><stop offset="0" style="stop-color:rgb(196,160,0);stop-opacity:1"/><stop offset="1" style="stop-color:rgb(153,124,0);stop-opacity:1"/></linearGradient>
        <linearGradient id="_Linear18" x1="0" y1="0" x2="1" y2="0" gradientUnits="userSpaceOnUse" gradientTransform="matrix(2.8246,11.2958,-11.2958,2.8246,32.5869,110.353)"><stop offset="0" style="stop-color:rgb(254,247,188);stop-opacity:1"/><stop offset="1" style="stop-color:rgb(252,233,79);stop-opacity:1"/></linearGradient>
        <linearGradient id="_Linear19" x1="0" y1="0" x2="1" y2="0" gradientUnits="userSpaceOnUse" gradientTransform="matrix(4.185,12.0901,-12.0901,4.185,31.9067,109.954)"><stop offset="0" style="stop-color:rgb(196,160,0);stop-opacity:1"/><stop offset="1" style="stop-color:rgb(153,124,0);stop-opacity:1"/></linearGradient>
    </defs>
</svg>
